<?xml version="1.0" encoding="utf-8"?>
<!-- Generator: Adobe Illustrator 18.0.0, SVG Export Plug-In . SVG Version: 6.00 Build 0)  -->
<!DOCTYPE svg PUBLIC "-//W3C//DTD SVG 1.1//EN" "http://www.w3.org/Graphics/SVG/1.1/DTD/svg11.dtd">
<svg version="1.1" id="Layer_1" xmlns="http://www.w3.org/2000/svg" xmlns:xlink="http://www.w3.org/1999/xlink" x="0px" y="0px"
	 viewBox="0 0 256 120" enable-background="new 0 0 256 120" xml:space="preserve">
<rect x="74.1" y="64.6" fill="#FFFFFF" stroke="#22B573" stroke-miterlimit="10" width="113.8" height="50"/>
<text transform="matrix(1 0 0 1 104.3354 93.354)" fill="#22B573" font-family="'MyriadPro-Regular'" font-size="18">Medium</text>
<rect x="199.3" y="64.5" fill="#FFFFFF" stroke="#C1272D" stroke-miterlimit="10" width="50" height="50"/>
<text transform="matrix(1 0 0 1 204.4146 93.5833)" fill="#C1272D" font-family="'MyriadPro-Regular'" font-size="18">Small</text>
<rect x="74.1" y="6.8" fill="#FFFFFF" stroke="#22B573" stroke-miterlimit="10" width="113.8" height="50"/>
<text transform="matrix(1 0 0 1 104.3354 35.5207)" fill="#22B573" font-family="'MyriadPro-Regular'" font-size="18">Medium</text>
<rect x="199.3" y="6.8" fill="#FFFFFF" stroke="#C1272D" stroke-miterlimit="10" width="50" height="50"/>
<text transform="matrix(1 0 0 1 204.4146 35.8542)" fill="#C1272D" font-family="'MyriadPro-Regular'" font-size="18">Small</text>
<rect x="13.8" y="64.7" fill="#FFFFFF" stroke="#C1272D" stroke-miterlimit="10" width="50" height="50"/>
<text transform="matrix(1 0 0 1 18.9146 93.7917)" fill="#C1272D" font-family="'MyriadPro-Regular'" font-size="18">Small</text>
<rect x="13.8" y="6.8" fill="#FFFFFF" stroke="#C1272D" stroke-miterlimit="10" width="50" height="50"/>
<text transform="matrix(1 0 0 1 18.9146 35.8542)" fill="#C1272D" font-family="'MyriadPro-Regular'" font-size="18">Small</text>
</svg>
