<?xml version="1.0" encoding="utf-8"?>
<!-- Generator: Adobe Illustrator 18.0.0, SVG Export Plug-In . SVG Version: 6.00 Build 0)  -->
<!DOCTYPE svg PUBLIC "-//W3C//DTD SVG 1.1//EN" "http://www.w3.org/Graphics/SVG/1.1/DTD/svg11.dtd">
<svg version="1.1" id="Layer_1" xmlns="http://www.w3.org/2000/svg" xmlns:xlink="http://www.w3.org/1999/xlink" x="0px" y="0px"
	 viewBox="0 0 256 120" enable-background="new 0 0 256 120" xml:space="preserve">
<rect x="8.2" y="9.7" fill="#FFFFFF" stroke="#C1272D" stroke-miterlimit="10" width="50" height="50"/>
<text transform="matrix(1 0 0 1 13.3292 38.7708)" fill="#C1272D" font-family="'MyriadPro-Regular'" font-size="18">Small</text>
<rect x="70.7" y="9.9" fill="#FFFFFF" stroke="#C1272D" stroke-miterlimit="10" width="50" height="50"/>
<text transform="matrix(1 0 0 1 75.8292 38.9792)" fill="#C1272D" font-family="'MyriadPro-Regular'" font-size="18">Small</text>
<rect x="135.3" y="9.8" fill="#FFFFFF" stroke="#C1272D" stroke-miterlimit="10" width="50" height="50"/>
<text transform="matrix(1 0 0 1 140.374 38.875)" fill="#C1272D" font-family="'MyriadPro-Regular'" font-size="18">Small</text>
<rect x="197.8" y="10" fill="#FFFFFF" stroke="#C1272D" stroke-miterlimit="10" width="50" height="50"/>
<text transform="matrix(1 0 0 1 202.874 39.0833)" fill="#C1272D" font-family="'MyriadPro-Regular'" font-size="18">Small</text>
<rect x="8.2" y="65.2" fill="#FFFFFF" stroke="#C1272D" stroke-miterlimit="10" width="50" height="50"/>
<text transform="matrix(1 0 0 1 13.3292 94.25)" fill="#C1272D" font-family="'MyriadPro-Regular'" font-size="18">Small</text>
<rect x="70.7" y="65.4" fill="#FFFFFF" stroke="#C1272D" stroke-miterlimit="10" width="50" height="50"/>
<text transform="matrix(1 0 0 1 75.8292 94.4583)" fill="#C1272D" font-family="'MyriadPro-Regular'" font-size="18">Small</text>
<rect x="135.3" y="65.3" fill="#FFFFFF" stroke="#C1272D" stroke-miterlimit="10" width="50" height="50"/>
<text transform="matrix(1 0 0 1 140.374 94.3542)" fill="#C1272D" font-family="'MyriadPro-Regular'" font-size="18">Small</text>
<rect x="197.8" y="65.5" fill="#FFFFFF" stroke="#C1272D" stroke-miterlimit="10" width="50" height="50"/>
<text transform="matrix(1 0 0 1 202.874 94.5625)" fill="#C1272D" font-family="'MyriadPro-Regular'" font-size="18">Small</text>
</svg>
