<?xml version="1.0" encoding="utf-8"?>
<!-- Generator: Adobe Illustrator 18.0.0, SVG Export Plug-In . SVG Version: 6.00 Build 0)  -->
<!DOCTYPE svg PUBLIC "-//W3C//DTD SVG 1.1//EN" "http://www.w3.org/Graphics/SVG/1.1/DTD/svg11.dtd">
<svg version="1.1" id="Layer_1" xmlns="http://www.w3.org/2000/svg" xmlns:xlink="http://www.w3.org/1999/xlink" x="0px" y="0px"
	 viewBox="0 0 256 120" enable-background="new 0 0 256 120" xml:space="preserve">
<rect x="137.4" y="6.9" fill="#FFFFFF" stroke="#C1272D" stroke-miterlimit="10" width="50" height="50"/>
<rect x="137.4" y="63.1" fill="#FFFFFF" stroke="#22B573" stroke-miterlimit="10" width="113.8" height="50"/>
<text transform="matrix(1 0 0 1 142.5448 35.9583)" fill="#C1272D" font-family="'MyriadPro-Regular'" font-size="18">Small</text>
<text transform="matrix(1 0 0 1 167.6302 93.3748)" fill="#22B573" font-family="'MyriadPro-Regular'" font-size="18">Medium</text>
<rect x="9.1" y="6.9" fill="#FFFFFF" stroke="#22B573" stroke-miterlimit="10" width="113.8" height="50"/>
<rect x="10.4" y="62.9" fill="#FFFFFF" stroke="#C1272D" stroke-miterlimit="10" width="50" height="50"/>
<text transform="matrix(1 0 0 1 15.5 92)" fill="#C1272D" font-family="'MyriadPro-Regular'" font-size="18">Small</text>
<rect x="199.9" y="7.1" fill="#FFFFFF" stroke="#C1272D" stroke-miterlimit="10" width="50" height="50"/>
<text transform="matrix(1 0 0 1 205.0448 36.1667)" fill="#C1272D" font-family="'MyriadPro-Regular'" font-size="18">Small</text>
<rect x="72.9" y="63.1" fill="#FFFFFF" stroke="#C1272D" stroke-miterlimit="10" width="50" height="50"/>
<text transform="matrix(1 0 0 1 78 92.2083)" fill="#C1272D" font-family="'MyriadPro-Regular'" font-size="18">Small</text>
<text transform="matrix(1 0 0 1 30.5 36.1665)" fill="#22B573" font-family="'MyriadPro-Regular'" font-size="18">Medium</text>
</svg>
